<svg style="display: none;" aria-hidden="true" xmlns="http://www.w3.org/2000/svg" xmlns:xlink="http://www.w3.org/1999/xlink"><symbol viewBox="0 0 16 12"  id="svg-alone-arrow"><path d="M15.3652 6.56003L10.3852 11.56C10.2252 11.72 10.0251 11.8 9.82515 11.8C9.62515 11.8 9.42515 11.72 9.26515 11.56C8.94515 11.24 8.94515 10.74 9.26515 10.42L12.8852 6.78003H1.20515C0.765151 6.78003 0.405151 6.42003 0.405151 5.98003C0.405151 5.54003 0.765151 5.18003 1.20515 5.18003H12.8852L9.26515 1.54004C8.94515 1.22004 8.94515 0.720034 9.26515 0.400034C9.58515 0.0800342 10.0852 0.0800342 10.4052 0.400034L15.3852 5.40003C15.6852 5.74003 15.6852 6.26003 15.3652 6.56003Z" /></symbol><symbol viewBox="0 0 24 24"  id="svg-basket"><path fill-rule="evenodd" clip-rule="evenodd" d="M3.14909 3.40828C3.0468 3.40057 2.90689 3.39998 2.65422 3.39998H.999976C.502919 3.39998.0999756 2.99704.0999756 2.49998.0999756 2.00292.502919 1.59998.999976 1.59998H2.65422C2.66304 1.59998 2.67185 1.59998 2.68065 1.59998 2.897 1.59996 3.10606 1.59993 3.28433 1.61337 3.48114 1.62819 3.70392 1.66265 3.9329 1.76479 4.2586 1.91007 4.53684 2.1441 4.73579 2.4401 4.87565 2.64818 4.94777 2.86177 4.9961 3.05313 5.03987 3.22646 5.07568 3.43244 5.11272 3.64559 5.11423 3.65426 5.11574 3.66294 5.11725 3.67163L5.36951 5.12211 18.462 5.50966C18.9747 5.52482 19.4118 5.53775 19.7707 5.57727 20.1483 5.61885 20.5145 5.69626 20.8635 5.88221 21.398 6.16693 21.8299 6.61181 22.0986 7.15444 22.2742 7.50882 22.3407 7.87715 22.3711 8.25576 22.4 8.61566 22.4 9.05303 22.4 9.56587V9.63365C22.4 10.1157 22.4 10.5281 22.3735 10.8691 22.3454 11.2288 22.2841 11.5787 22.1238 11.9193 21.8773 12.443 21.4796 12.881 20.9821 13.1769 20.6585 13.3692 20.3162 13.464 19.9608 13.5265 19.624 13.5858 19.2135 13.6255 18.7337 13.6719L9.00572 14.6133C8.51395 14.6609 8.09355 14.7016 7.74393 14.7078 7.37536 14.7142 7.01356 14.6854 6.65274 14.5528 6.10602 14.352 5.63244 13.9912 5.29369 13.5174 5.07011 13.2047 4.94625 12.8635 4.85466 12.5065 4.76779 12.1678 4.69544 11.7517 4.61081 11.2649L3.34387 3.98004C3.30058 3.73111 3.27602 3.59336 3.2509 3.49391 3.24314 3.46317 3.23713 3.44401 3.23349 3.4334 3.22714 3.42628 3.2198 3.4201 3.21169 3.41506 3.20061 3.41329 3.1807 3.41066 3.14909 3.40828zM5.68431 6.93221L6.37839 10.9232C6.47043 11.4524 6.53115 11.7977 6.59823 12.0593 6.66256 12.3101 6.71616 12.4121 6.75792 12.4705 6.88641 12.6502 7.06605 12.787 7.27342 12.8632 7.34082 12.888 7.45336 12.9126 7.71227 12.908 7.98222 12.9033 8.33129 12.8702 8.86593 12.8184L18.5273 11.8835C19.0491 11.833 19.3893 11.7994 19.6489 11.7537 19.8975 11.71 20.0013 11.6658 20.0621 11.6297 20.2509 11.5175 20.4017 11.3513 20.4952 11.1527 20.5254 11.0887 20.5593 10.9811 20.5789 10.7294 20.5993 10.4666 20.6 10.1248 20.6 9.60048 20.6 9.0436 20.5993 8.67904 20.5769 8.39979 20.5553 8.13117 20.518 8.01855 20.4857 7.9534 20.3837 7.74757 20.2199 7.57883 20.0172 7.47083 19.953 7.43664 19.8415 7.39595 19.5737 7.36645 19.2952 7.33579 18.9308 7.32432 18.3742 7.30785L5.68431 6.93221zM8.49998 17.9C7.89246 17.9 7.39998 18.3925 7.39998 19 7.39998 19.6075 7.89246 20.1 8.49998 20.1 9.10749 20.1 9.59998 19.6075 9.59998 19 9.59998 18.3925 9.10749 17.9 8.49998 17.9zM5.59998 19C5.59998 17.3983 6.89835 16.1 8.49998 16.1 10.1016 16.1 11.4 17.3983 11.4 19 11.4 20.6016 10.1016 21.9 8.49998 21.9 6.89835 21.9 5.59998 20.6016 5.59998 19zM18 17.9C17.3925 17.9 16.9 18.3925 16.9 19 16.9 19.6075 17.3925 20.1 18 20.1 18.6075 20.1 19.1 19.6075 19.1 19 19.1 18.3925 18.6075 17.9 18 17.9zM15.1 19C15.1 17.3983 16.3983 16.1 18 16.1 19.6016 16.1 20.9 17.3983 20.9 19 20.9 20.6016 19.6016 21.9 18 21.9 16.3983 21.9 15.1 20.6016 15.1 19z" /></symbol><symbol viewBox="0 0 36 40"  id="svg-cup"><path d="M30.903 2.34375C30.0495 2.34375 29.2494 2.57414 28.5593 2.97437V1.17188C28.5593 0.524687 28.0346 0 27.3874 0H8.63742C7.99016 0 7.46547 0.524687 7.46547 1.17188V2.98867C6.76992 2.57953 5.96063 2.34375 5.09695 2.34375C2.51227 2.34375 0.409454 4.44656 0.409454 7.03125C0.409454 9.00273 0.993673 10.9077 2.09891 12.5402C3.98047 15.3193 6.3007 16.0405 8.22063 16.8084C9.32766 19.5653 11.5663 21.7502 14.3589 22.7846L13.4948 28.2812H13.3249C11.3864 28.2812 9.8093 29.8584 9.8093 31.7969V37.6562H8.63742C7.99023 37.6562 7.46555 38.1809 7.46555 38.8281C7.46555 39.4753 7.99023 40 8.63742 40H27.3874C28.0346 40 28.5593 39.4753 28.5593 38.8281C28.5593 38.1809 28.0346 37.6562 27.3874 37.6562H26.2155V31.7969C26.2155 29.8584 24.6384 28.2812 22.6999 28.2812H22.5301L21.666 22.7847C24.4627 21.7487 26.7038 19.5591 27.8092 16.7966C29.6229 16.0711 32.0003 15.3478 33.9012 12.5402C35.0064 10.9077 35.5906 9.00266 35.5906 7.03125C35.5905 4.44656 33.4877 2.34375 30.903 2.34375ZM7.4568 13.9787C4.59945 12.8357 2.7532 10.1087 2.7532 7.03125C2.7532 5.73891 3.80461 4.6875 5.09695 4.6875C6.3893 4.6875 7.4407 5.73891 7.4407 7.03125C7.4407 7.11367 7.44938 7.19398 7.46555 7.27156V12.8906C7.46555 13.2673 7.48578 13.6392 7.52453 14.0058L7.4568 13.9787ZM23.8718 37.6562H12.153V35.3125H23.8718V37.6562ZM22.6999 30.625C23.3461 30.625 23.8718 31.1507 23.8718 31.7969V32.9688H12.153V31.7969C12.153 31.1507 12.6788 30.625 13.3249 30.625C13.9607 30.625 21.2089 30.625 22.6999 30.625ZM15.8673 28.2812L16.6427 23.3487C17.0912 23.4071 17.5483 23.4375 18.0124 23.4375C18.4766 23.4375 18.9337 23.407 19.3821 23.3487L20.1576 28.2812H15.8673ZM26.2155 12.8906C26.2155 17.4138 22.5356 21.0938 18.0124 21.0938C13.4892 21.0938 9.8093 17.4138 9.8093 12.8906V7.03125H26.2155V12.8906ZM26.2155 4.6875H9.8093V2.34375H26.2155V4.6875ZM28.5431 13.9787L28.5015 13.9953C28.5395 13.6322 28.5592 13.2637 28.5592 12.8906V7.03125C28.5593 5.73891 29.6107 4.6875 30.903 4.6875C32.1954 4.6875 33.2468 5.73891 33.2468 7.03125C33.2468 10.1087 31.4005 12.8358 28.5431 13.9787Z" /></symbol><symbol viewBox="0 0 40 40"  id="svg-done"><path d="M37.8573 14.1741C37.3295 12.5397 37.5545 10.0864 36.1827 8.19207C34.8 6.28286 32.3952 5.7402 31.0373 4.74707C29.6938 3.76442 28.4438 1.62606 26.1837 0.888559C23.9873 0.17184 21.7414 1.14442 20 1.14442C18.2588 1.14442 16.013 0.171606 13.8163 0.888481C11.5566 1.62582 10.3056 3.76465 8.96289 4.74684C7.60648 5.73879 5.19992 6.28293 3.8175 8.19184C2.4468 10.0846 2.66953 12.5436 2.14266 14.174C1.64125 15.7258 0 17.5882 0 20.0001C0 22.4135 1.63938 24.2687 2.14266 25.8261C2.67047 27.4605 2.44547 29.9139 3.81734 31.8082C5.19992 33.7175 7.60461 34.26 8.96266 35.2532C10.306 36.2357 11.5562 38.3743 13.8163 39.1117C16.0112 39.8279 18.2606 38.8558 20 38.8558C21.737 38.8558 23.9916 39.8269 26.1837 39.1118C28.4434 38.3744 29.6937 36.2361 31.0371 35.2534C32.3935 34.2614 34.8001 33.7173 36.1825 31.8084C37.5533 29.9156 37.3304 27.4568 37.8573 25.8262C38.3587 24.2743 40 22.4119 40 20.0001C40 17.5869 38.361 15.7322 37.8573 14.1741ZM34.8838 24.8653C34.2686 26.7696 34.4298 28.9007 33.6516 29.9753C32.863 31.0641 30.7913 31.5614 29.1926 32.7308C27.6114 33.8871 26.5032 35.7202 25.2143 36.1407C23.9949 36.5387 22.0077 35.7307 20.0001 35.7307C17.9777 35.7307 16.011 36.5404 14.7858 36.1407C13.497 35.7202 12.3904 33.8884 10.8075 32.7307C9.21828 31.5685 7.13469 31.0609 6.34836 29.9751C5.57273 28.9042 5.72781 26.7582 5.11633 24.8654C4.51695 23.0107 3.125 21.4049 3.125 20.0001C3.125 18.594 4.5157 16.9936 5.11617 15.135C5.73141 13.2307 5.57023 11.0994 6.34836 10.025C7.13648 8.93684 9.20984 8.43786 10.8075 7.26942C12.3937 6.10934 13.4949 4.28067 14.7856 3.8595C16.004 3.462 17.9977 4.26957 19.9999 4.26957C22.0259 4.26957 23.9877 3.45926 25.2142 3.8595C26.5028 4.27997 27.6104 6.11247 29.1926 7.2695C30.7816 8.43176 32.8653 8.93934 33.6516 10.025C34.4274 11.0962 34.2715 13.24 34.8837 15.1348V15.1349C35.483 16.9895 36.875 18.5954 36.875 20.0001C36.875 21.4063 35.4843 23.0066 34.8838 24.8653ZM27.1987 14.9849C27.8089 15.5951 27.8089 16.5844 27.1987 17.1946L19.3779 25.0154C18.7677 25.6256 17.7783 25.6255 17.1681 25.0154L12.8014 20.6486C12.1912 20.0384 12.1911 19.0491 12.8013 18.4389C13.4116 17.8288 14.401 17.8287 15.011 18.4389L18.273 21.7008L24.9888 14.985C25.5991 14.3747 26.5884 14.3747 27.1987 14.9849Z" /></symbol><symbol viewBox="0 0 18 18"  id="svg-enter-icon"><path d="M17.7825 0.217449C17.6813 0.116704 17.5534 0.046952 17.4139 0.0163941C17.2744 -0.0141638 17.1291 -0.00425714 16.995 0.0449493L0.495001 6.04495C0.352702 6.09892 0.230191 6.19491 0.143739 6.32016C0.0572872 6.44542 0.0109863 6.59401 0.0109863 6.7462C0.0109863 6.89839 0.0572872 7.04698 0.143739 7.17223C0.230191 7.29749 0.352702 7.39348 0.495001 7.44745L6.9375 10.0199L11.6925 5.24995L12.75 6.30745L7.9725 11.0849L10.5525 17.5275C10.6081 17.667 10.7043 17.7866 10.8286 17.8709C10.953 17.9551 11.0998 18.0001 11.25 17.9999C11.4016 17.9968 11.5486 17.9479 11.6718 17.8595C11.795 17.7711 11.8885 17.6475 11.94 17.5049L17.94 1.00495C17.9911 0.872257 18.0034 0.727772 17.9755 0.588342C17.9477 0.448912 17.8807 0.320282 17.7825 0.217449Z" /></symbol><symbol viewBox="0 0 40 40"  id="svg-free-shoping"><g clip-path="url(#fclip0_27_487)"><path d="M36.8986 20.7346V2.5198C36.8986 1.86997 36.3718 1.34314 35.722 1.34314H4.19674C3.54691 1.34314 3.02008 1.86997 3.02008 2.5198V22.1867C2.45246 22.2694 1.89755 22.4898 1.40664 22.8542C-0.140899 23.9516 -0.506918 26.4073 0.789368 27.9218L6.08928 34.347C9.36996 38.1866 12.855 38.657 18.0359 38.657C22.4819 38.657 24.4696 38.6766 28.3443 37.7937L32.1173 36.8913C32.7291 37.7456 33.7003 38.299 34.7922 38.299H36.6508C38.4975 38.299 40 36.7163 40 34.7708V24.2523C40.0001 22.3947 38.63 20.8688 36.8986 20.7346ZM31.6098 23.1551L30.042 22.3588C27.4642 21.0577 24.4839 21.0095 21.8655 22.2269C21.1511 22.5079 19.5929 23.4506 18.7847 23.4191H13.3445C11.54 23.4191 10.0718 24.8872 10.0718 26.6918V27.5499C10.0617 27.5392 10.0511 27.5291 10.0411 27.5182L6.15619 23.3013C5.9211 23.0462 5.65697 22.8326 5.37348 22.6613V10.9874H15.0027V15.3007C15.0027 15.9505 15.5295 16.4773 16.1794 16.4773H23.6042C24.254 16.4773 24.7808 15.9505 24.7808 15.3007V10.9874H34.5454V20.7346C33.1706 20.8408 32.0242 21.8243 31.6098 23.1551ZM17.356 10.9874H22.4274V14.124H17.356V10.9874ZM34.5453 8.63404H24.7808V3.69646H34.5454V8.63404H34.5453ZM22.4275 3.69646V8.63412H17.356V3.69646H22.4275ZM15.0026 3.69646V8.63412H5.3734V3.69646H15.0026ZM27.7982 35.5046C24.2188 36.3244 22.0631 36.2912 18.0781 36.2912C13.2146 36.2912 10.8646 36.2126 7.90479 32.8494L2.60488 26.4243C1.683 25.2238 3.35276 23.8067 4.4254 24.8957L8.31034 29.1127C9.3371 30.1961 10.6291 30.7923 12.2216 30.8274H22.9926C23.6425 30.8274 24.1693 30.3006 24.1693 29.6507C24.1693 29.0009 23.6425 28.4741 22.9926 28.4741H12.425V26.6916C12.425 26.1847 12.8374 25.7722 13.3444 25.7722H18.7847C20.0103 25.86 21.7793 24.8366 22.8575 24.3607C24.8186 23.4489 27.0508 23.485 28.9789 24.4581L31.4432 25.7098V34.6326L27.7982 35.5046ZM37.6467 34.7707C37.6467 35.4186 37.2 35.9456 36.6509 35.9456H34.7922C34.2431 35.9456 33.7965 35.4186 33.7965 34.7707V24.2523C33.7965 23.6044 34.2432 23.0773 34.7922 23.0773H36.6509C37.2 23.0773 37.6467 23.6044 37.6467 24.2523V34.7707Z" /></g><defs><clipPath id="fclip0_27_487"><path  d="M0 0H40V40H0z"/></clipPath></defs></symbol><symbol viewBox="0 0 24 21"  id="svg-heart"><path d="M11.9996 19.0542C-8 8.00003 5.99999 -3.99997 11.9996 3.58809C18 -3.99997 32 8.00003 11.9996 19.0542Z" stroke="#262F56" stroke-width="1.8"/></symbol><symbol viewBox="0 0 9 16"  id="svg-left-arrow"><path d="M7.99988 1L0.999878 8L7.99988 15" stroke="#E89F71" stroke-width="1.8" stroke-linecap="round" stroke-linejoin="round"/></symbol><symbol viewBox="0 0 24 21"  id="svg-like"><path d="M11.9996 19.0541C-8 8 5.99999 -4 11.9996 3.58806C18 -4 32 8 11.9996 19.0541Z" stroke="#fff" stroke-width="1.8"/></symbol><symbol viewBox="0 0 16 19"  id="svg-location"><path fill-rule="evenodd" clip-rule="evenodd" d="M8.97404 18.5413C11.0898 17.0976 15.9167 13.3048 15.9167 8.74992C15.9167 4.37766 12.3723 0.833252 8 0.833252C3.62775 0.833252 0.083334 4.37766 0.083334 8.74992C0.083334 13.3048 4.91025 17.0976 7.02596 18.5413C7.61759 18.945 8.38241 18.945 8.97404 18.5413ZM8 11.2499C9.38071 11.2499 10.5 10.1306 10.5 8.74992C10.5 7.36921 9.38071 6.24992 8 6.24992C6.61929 6.24992 5.5 7.36921 5.5 8.74992C5.5 10.1306 6.61929 11.2499 8 11.2499Z" /></symbol><symbol viewBox="0 0 16 16"  id="svg-phone"><path d="M11.4307 11.0668L10.9152 11.8401C10.8123 11.9944 10.6762 12.1261 10.4969 12.1735C9.90946 12.3287 8.3499 12.3988 5.9755 10.0244C3.60111 7.65004 3.67119 6.09046 3.82641 5.50302C3.8738 5.32368 4.00549 5.1876 4.15983 5.0847L4.93308 4.5692C5.50878 4.1854 5.66435 3.40757 5.28055 2.83187L3.82014 0.64126C3.48514 0.138762 2.83933 -0.0532187 2.28423 0.18468L1.62544 0.467021C1.12498 0.681503 0.716742 1.06643 0.47324 1.55343C0.269804 1.96031 0.112126 2.38877 0.0907621 2.84317C0.0234363 4.27515 0.337433 7.80312 4.26713 11.7328C8.19682 15.6625 11.7248 15.9765 13.1568 15.9092C13.6111 15.8878 14.0396 15.7301 14.4465 15.5267C14.9335 15.2832 15.3184 14.8749 15.5329 14.3745L15.8152 13.7157C16.0531 13.1606 15.8612 12.5148 15.3587 12.1798L13.168 10.7194C12.5923 10.3356 11.8145 10.4911 11.4307 11.0668Z" /></symbol><symbol viewBox="0 0 9 16"  id="svg-right-arrow"><path d="M1.00012 1L8.00012 8L1.00012 15" stroke="#fff" stroke-width="1.8" stroke-linecap="round" stroke-linejoin="round"/></symbol><symbol viewBox="0 0 16 16"  id="svg-search-icon"><path fill-rule="evenodd" clip-rule="evenodd" d="M6.75002 2.23335C4.25553 2.23335 2.23335 4.25553 2.23335 6.75002C2.23335 9.2445 4.25553 11.2667 6.75002 11.2667C7.99751 11.2667 9.12544 10.7621 9.94378 9.94378C10.7621 9.12544 11.2667 7.99751 11.2667 6.75002C11.2667 4.25553 9.2445 2.23335 6.75002 2.23335ZM0.43335 6.75002C0.43335 3.26142 3.26142 0.43335 6.75002 0.43335C10.2386 0.43335 13.0667 3.26142 13.0667 6.75002C13.0667 8.16934 12.5978 9.48028 11.8076 10.5348L15.3031 14.0303C15.6545 14.3818 15.6545 14.9516 15.3031 15.3031C14.9516 15.6545 14.3818 15.6545 14.0303 15.3031L10.5348 11.8076C9.48028 12.5978 8.16934 13.0667 6.75002 13.0667C3.26142 13.0667 0.43335 10.2386 0.43335 6.75002Z" /></symbol><symbol viewBox="0 0 18 20"  id="svg-share"><path d="M15 14C14.212 14 13.5 14.31 12.966 14.807L5.91 10.7C5.96 10.47 6 10.24 6 10C6 9.76 5.96 9.53 5.91 9.3L12.96 5.19C13.5 5.69 14.21 6 15 6C16.66 6 18 4.66 18 3C18 1.34 16.66 0 15 0C13.34 0 12 1.34 12 3C12 3.24 12.04 3.47 12.09 3.7L5.04 7.81C4.5 7.31 3.79 7 3 7C1.34 7 0 8.34 0 10C0 11.66 1.34 13 3 13C3.79 13 4.5 12.69 5.04 12.19L12.088 16.308C12.0317 16.5344 12.0022 16.7667 12 17C12 17.5933 12.1759 18.1734 12.5056 18.6667C12.8352 19.1601 13.3038 19.5446 13.8519 19.7716C14.4001 19.9987 15.0033 20.0581 15.5853 19.9424C16.1672 19.8266 16.7018 19.5409 17.1213 19.1213C17.5409 18.7018 17.8266 18.1672 17.9424 17.5853C18.0581 17.0033 17.9987 16.4001 17.7716 15.8519C17.5446 15.3038 17.1601 14.8352 16.6667 14.5056C16.1734 14.1759 15.5933 14 15 14Z" /></symbol><symbol viewBox="0 0 36 40"  id="svg-support"><path d="M34.4624 15.9752C34.1995 7.12165 26.9161 0 18 0C9.08381 0 1.80043 7.12165 1.53745 15.9752L0.352905 17.1598V25.1932L1.52938 26.3696V31.8431C1.52938 35.0435 4.13298 37.6471 7.3333 37.6471H8.79055C9.2762 39.0164 10.5839 40 12.1176 40H14.4706C16.0053 40 17.3137 39.015 17.7986 37.6442C17.8658 37.6454 17.9331 37.6471 18 37.6471C23.6814 37.6471 28.4351 33.5987 29.5281 28.2353H32.6049L35.647 25.1932V17.1598L34.4624 15.9752ZM18 2.35294C24.9828 2.35294 30.7969 7.44933 31.9204 14.1176H29.5281C28.4351 8.7542 23.6814 4.70588 18 4.70588C12.3186 4.70588 7.56483 8.7542 6.47181 14.1176H4.07949C5.20302 7.44933 11.0171 2.35294 18 2.35294ZM27.1139 14.1176C23.3109 14.1063 20.6246 14.3379 18.4098 11.1004L17.3344 9.52839L16.4102 11.1938C15.0635 13.6204 13.2499 14.1176 10.9411 14.1176H8.886C9.93346 10.0629 13.6225 7.05882 18 7.05882C22.3775 7.05882 26.0665 10.0629 27.1139 14.1176ZM6.23526 25.8824H4.36961L2.70585 24.2186V18.1344L4.36961 16.4706H6.23526V25.8824ZM3.88232 31.8431V28.2353H6.46953C6.91244 30.4294 7.97212 32.4435 9.542 34.0611C9.21291 34.4127 8.95479 34.8311 8.79055 35.2941H7.3333C5.4304 35.2941 3.88232 33.746 3.88232 31.8431ZM14.4706 37.6471H12.1176C11.4688 37.6471 10.9411 37.1194 10.9411 36.4706C10.9411 35.8219 11.4688 35.2941 12.1176 35.2941H14.4706C15.1193 35.2941 15.647 35.8219 15.647 36.4706C15.647 37.1194 15.1193 37.6471 14.4706 37.6471ZM27.4117 25.8824C27.4117 31.072 23.1896 35.2941 18 35.2941C17.9325 35.2941 17.8645 35.2928 17.7966 35.2912C17.3102 33.9234 16.0032 32.9412 14.4706 32.9412C12.0549 32.9465 12.0934 32.9291 11.7923 32.9568C9.74977 31.1665 8.5882 28.6166 8.5882 25.8824V16.4706H10.9411C13.0233 16.4706 15.5589 16.1273 17.5218 13.7384C20.1116 16.4524 23.2764 16.4706 26.1175 16.4706H27.4117V25.8824ZM33.2941 24.2186L31.6303 25.8824H29.7647V16.4706H31.6303L33.2941 18.1344V24.2186Z" /></symbol></svg>